<svg xmlns="http://www.w3.org/2000/svg" viewBox="30 -10 1000 665" width="1000" height="665">
<rect x="30" y="-10" width="1000" height="665" fill="#ffffff"/>
<style>text { font-family: monospace; }</style>
<text x="50" y="32.0" fill="#1e1e1e" font-size="22" font-family="monospace">NPS1 vs NPS4: Same Hardware, Different BIOS Setting</text>
<text x="180" y="68.0" fill="#2f9e44" font-size="20" font-family="monospace">NPS1 (default)</text>
<text x="700" y="68.0" fill="#e03131" font-size="20" font-family="monospace">NPS4</text>
<polyline points="525,45 525,635" fill="none" stroke="#dee2e6" stroke-width="2" stroke-dasharray="5,5"/>
<rect x="65" y="85" width="85" height="38" rx="8" fill="#f1f3f5" stroke="#2f9e44" stroke-width="1" stroke-dasharray="none" opacity="1.0"/>
<text x="75" y="100.0" fill="#2f9e44" font-size="11" font-family="monospace">CCD 0</text>
<text x="75" y="114.0" fill="#495057" font-size="9" font-family="monospace">16 cores</text>
<rect x="170" y="85" width="85" height="38" rx="8" fill="#f1f3f5" stroke="#2f9e44" stroke-width="1" stroke-dasharray="none" opacity="1.0"/>
<text x="180" y="100.0" fill="#2f9e44" font-size="11" font-family="monospace">CCD 1</text>
<text x="180" y="114.0" fill="#495057" font-size="9" font-family="monospace">16 cores</text>
<rect x="275" y="85" width="85" height="38" rx="8" fill="#f1f3f5" stroke="#2f9e44" stroke-width="1" stroke-dasharray="none" opacity="1.0"/>
<text x="285" y="100.0" fill="#2f9e44" font-size="11" font-family="monospace">CCD 2</text>
<text x="285" y="114.0" fill="#495057" font-size="9" font-family="monospace">16 cores</text>
<rect x="380" y="85" width="85" height="38" rx="8" fill="#f1f3f5" stroke="#2f9e44" stroke-width="1" stroke-dasharray="none" opacity="1.0"/>
<text x="390" y="100.0" fill="#2f9e44" font-size="11" font-family="monospace">CCD 3</text>
<text x="390" y="114.0" fill="#495057" font-size="9" font-family="monospace">16 cores</text>
<polyline points="107,123 107,168" fill="none" stroke="#e8590c" stroke-width="1" stroke-dasharray="none"/>
<polyline points="212,123 212,168" fill="none" stroke="#e8590c" stroke-width="1" stroke-dasharray="none"/>
<polyline points="317,123 317,168" fill="none" stroke="#e8590c" stroke-width="1" stroke-dasharray="none"/>
<polyline points="422,123 422,168" fill="none" stroke="#e8590c" stroke-width="1" stroke-dasharray="none"/>
<text x="170" y="167.0" fill="#e8590c" font-size="9" font-family="monospace">Infinity Fabric</text>
<rect x="58" y="168" width="430" height="125" rx="8" fill="#fff9db" stroke="#e8590c" stroke-width="2" stroke-dasharray="none" opacity="1.0"/>
<text x="243" y="240.0" fill="#e8590c" font-size="14" font-family="monospace">IO Die</text>
<rect x="70" y="196" width="406" height="30" rx="8" fill="#ffe8cc" stroke="#e8590c" stroke-width="2" stroke-dasharray="none" opacity="1.0"/>
<text x="160" y="215.0" fill="#e8590c" font-size="13" font-family="monospace">1 memory controller</text>
<text x="70" y="250.0" fill="#868e96" font-size="10" font-family="monospace">PCIe roots (unchanged)</text>
<rect x="70" y="251" width="80" height="26" rx="8" fill="#f8f9fa" stroke="#495057" stroke-width="1" stroke-dasharray="none" opacity="1.0"/>
<text x="82" y="267.0" fill="#495057" font-size="11" font-family="monospace">root 0</text>
<rect x="175" y="251" width="80" height="26" rx="8" fill="#f8f9fa" stroke="#495057" stroke-width="1" stroke-dasharray="none" opacity="1.0"/>
<text x="187" y="267.0" fill="#495057" font-size="11" font-family="monospace">root 1</text>
<rect x="280" y="251" width="80" height="26" rx="8" fill="#f8f9fa" stroke="#495057" stroke-width="1" stroke-dasharray="none" opacity="1.0"/>
<text x="292" y="267.0" fill="#495057" font-size="11" font-family="monospace">root 2</text>
<rect x="385" y="251" width="80" height="26" rx="8" fill="#f8f9fa" stroke="#495057" stroke-width="1" stroke-dasharray="none" opacity="1.0"/>
<text x="397" y="267.0" fill="#495057" font-size="11" font-family="monospace">root 3</text>
<polyline points="110,293 110,318" fill="none" stroke="#868e96" stroke-width="1" stroke-dasharray="5,5"/>
<polyline points="215,293 215,318" fill="none" stroke="#868e96" stroke-width="1" stroke-dasharray="5,5"/>
<polyline points="320,293 320,318" fill="none" stroke="#868e96" stroke-width="1" stroke-dasharray="5,5"/>
<polyline points="425,293 425,318" fill="none" stroke="#868e96" stroke-width="1" stroke-dasharray="5,5"/>
<rect x="70" y="318" width="36" height="24" rx="8" fill="#a5d8ff" stroke="#1971c2" stroke-width="1" stroke-dasharray="none" opacity="1.0"/>
<text x="77" y="333.0" fill="#1971c2" font-size="10" font-family="monospace">G0</text>
<rect x="112" y="318" width="36" height="24" rx="8" fill="#e8d0ff" stroke="#6741d9" stroke-width="1" stroke-dasharray="none" opacity="1.0"/>
<text x="119" y="333.0" fill="#6741d9" font-size="10" font-family="monospace">N0</text>
<rect x="175" y="318" width="36" height="24" rx="8" fill="#a5d8ff" stroke="#1971c2" stroke-width="1" stroke-dasharray="none" opacity="1.0"/>
<text x="182" y="333.0" fill="#1971c2" font-size="10" font-family="monospace">G1</text>
<rect x="217" y="318" width="36" height="24" rx="8" fill="#e8d0ff" stroke="#6741d9" stroke-width="1" stroke-dasharray="none" opacity="1.0"/>
<text x="224" y="333.0" fill="#6741d9" font-size="10" font-family="monospace">N1</text>
<rect x="280" y="318" width="36" height="24" rx="8" fill="#a5d8ff" stroke="#1971c2" stroke-width="1" stroke-dasharray="none" opacity="1.0"/>
<text x="287" y="333.0" fill="#1971c2" font-size="10" font-family="monospace">G2</text>
<rect x="322" y="318" width="36" height="24" rx="8" fill="#e8d0ff" stroke="#6741d9" stroke-width="1" stroke-dasharray="none" opacity="1.0"/>
<text x="329" y="333.0" fill="#6741d9" font-size="10" font-family="monospace">N2</text>
<rect x="385" y="318" width="36" height="24" rx="8" fill="#a5d8ff" stroke="#1971c2" stroke-width="1" stroke-dasharray="none" opacity="1.0"/>
<text x="392" y="333.0" fill="#1971c2" font-size="10" font-family="monospace">G3</text>
<rect x="427" y="318" width="36" height="24" rx="8" fill="#e8d0ff" stroke="#6741d9" stroke-width="1" stroke-dasharray="none" opacity="1.0"/>
<text x="434" y="333.0" fill="#6741d9" font-size="10" font-family="monospace">N3</text>
<rect x="55" y="80" width="436" height="270" rx="8" fill="none" stroke="#2f9e44" stroke-width="2" stroke-dasharray="5,5" opacity="1.0"/>
<text x="450" y="364.0" fill="#2f9e44" font-size="11" font-family="monospace">NUMA 0</text>
<rect x="55" y="372" width="436" height="55" rx="8" fill="#ebfbee" stroke="#2f9e44" stroke-width="2" stroke-dasharray="none" opacity="1.0"/>
<text x="68" y="390.0" fill="#1e1e1e" font-size="13" font-family="monospace">matchAttribute: numaNode</text>
<text x="68" y="406.0" fill="#495057" font-size="12" font-family="monospace">G0: 0    N2: 0</text>
<text x="68" y="423.0" fill="#2f9e44" font-size="13" font-family="monospace">MATCH</text>
<rect x="565" y="85" width="85" height="38" rx="8" fill="#f1f3f5" stroke="#2f9e44" stroke-width="1" stroke-dasharray="none" opacity="1.0"/>
<text x="575" y="100.0" fill="#2f9e44" font-size="11" font-family="monospace">CCD 0</text>
<text x="575" y="114.0" fill="#495057" font-size="9" font-family="monospace">16 cores</text>
<rect x="670" y="85" width="85" height="38" rx="8" fill="#f1f3f5" stroke="#1971c2" stroke-width="1" stroke-dasharray="none" opacity="1.0"/>
<text x="680" y="100.0" fill="#1971c2" font-size="11" font-family="monospace">CCD 1</text>
<text x="680" y="114.0" fill="#495057" font-size="9" font-family="monospace">16 cores</text>
<rect x="775" y="85" width="85" height="38" rx="8" fill="#f1f3f5" stroke="#6741d9" stroke-width="1" stroke-dasharray="none" opacity="1.0"/>
<text x="785" y="100.0" fill="#6741d9" font-size="11" font-family="monospace">CCD 2</text>
<text x="785" y="114.0" fill="#495057" font-size="9" font-family="monospace">16 cores</text>
<rect x="880" y="85" width="85" height="38" rx="8" fill="#f1f3f5" stroke="#e03131" stroke-width="1" stroke-dasharray="none" opacity="1.0"/>
<text x="890" y="100.0" fill="#e03131" font-size="11" font-family="monospace">CCD 3</text>
<text x="890" y="114.0" fill="#495057" font-size="9" font-family="monospace">16 cores</text>
<polyline points="607,123 607,168" fill="none" stroke="#e8590c" stroke-width="1" stroke-dasharray="none"/>
<polyline points="712,123 712,168" fill="none" stroke="#e8590c" stroke-width="1" stroke-dasharray="none"/>
<polyline points="817,123 817,168" fill="none" stroke="#e8590c" stroke-width="1" stroke-dasharray="none"/>
<polyline points="922,123 922,168" fill="none" stroke="#e8590c" stroke-width="1" stroke-dasharray="none"/>
<rect x="558" y="168" width="430" height="125" rx="8" fill="#fff9db" stroke="#e8590c" stroke-width="2" stroke-dasharray="none" opacity="1.0"/>
<rect x="570" y="196" width="80" height="30" rx="8" fill="#ffe8cc" stroke="#2f9e44" stroke-width="1" stroke-dasharray="none" opacity="1.0"/>
<text x="582" y="215.0" fill="#2f9e44" font-size="12" font-family="monospace">mc 0</text>
<rect x="675" y="196" width="80" height="30" rx="8" fill="#ffe8cc" stroke="#1971c2" stroke-width="1" stroke-dasharray="none" opacity="1.0"/>
<text x="687" y="215.0" fill="#1971c2" font-size="12" font-family="monospace">mc 1</text>
<rect x="780" y="196" width="80" height="30" rx="8" fill="#ffe8cc" stroke="#6741d9" stroke-width="1" stroke-dasharray="none" opacity="1.0"/>
<text x="792" y="215.0" fill="#6741d9" font-size="12" font-family="monospace">mc 2</text>
<rect x="885" y="196" width="80" height="30" rx="8" fill="#ffe8cc" stroke="#e03131" stroke-width="1" stroke-dasharray="none" opacity="1.0"/>
<text x="897" y="215.0" fill="#e03131" font-size="12" font-family="monospace">mc 3</text>
<rect x="570" y="251" width="80" height="26" rx="8" fill="#f8f9fa" stroke="#495057" stroke-width="1" stroke-dasharray="none" opacity="1.0"/>
<text x="582" y="267.0" fill="#495057" font-size="11" font-family="monospace">root 0</text>
<rect x="675" y="251" width="80" height="26" rx="8" fill="#f8f9fa" stroke="#495057" stroke-width="1" stroke-dasharray="none" opacity="1.0"/>
<text x="687" y="267.0" fill="#495057" font-size="11" font-family="monospace">root 1</text>
<rect x="780" y="251" width="80" height="26" rx="8" fill="#f8f9fa" stroke="#495057" stroke-width="1" stroke-dasharray="none" opacity="1.0"/>
<text x="792" y="267.0" fill="#495057" font-size="11" font-family="monospace">root 2</text>
<rect x="885" y="251" width="80" height="26" rx="8" fill="#f8f9fa" stroke="#495057" stroke-width="1" stroke-dasharray="none" opacity="1.0"/>
<text x="897" y="267.0" fill="#495057" font-size="11" font-family="monospace">root 3</text>
<polyline points="610,293 610,318" fill="none" stroke="#868e96" stroke-width="1" stroke-dasharray="5,5"/>
<polyline points="715,293 715,318" fill="none" stroke="#868e96" stroke-width="1" stroke-dasharray="5,5"/>
<polyline points="820,293 820,318" fill="none" stroke="#868e96" stroke-width="1" stroke-dasharray="5,5"/>
<polyline points="925,293 925,318" fill="none" stroke="#868e96" stroke-width="1" stroke-dasharray="5,5"/>
<rect x="570" y="318" width="36" height="24" rx="8" fill="#a5d8ff" stroke="#1971c2" stroke-width="1" stroke-dasharray="none" opacity="1.0"/>
<text x="577" y="333.0" fill="#1971c2" font-size="10" font-family="monospace">G0</text>
<rect x="612" y="318" width="36" height="24" rx="8" fill="#e8d0ff" stroke="#6741d9" stroke-width="1" stroke-dasharray="none" opacity="1.0"/>
<text x="619" y="333.0" fill="#6741d9" font-size="10" font-family="monospace">N0</text>
<rect x="675" y="318" width="36" height="24" rx="8" fill="#a5d8ff" stroke="#1971c2" stroke-width="1" stroke-dasharray="none" opacity="1.0"/>
<text x="682" y="333.0" fill="#1971c2" font-size="10" font-family="monospace">G1</text>
<rect x="717" y="318" width="36" height="24" rx="8" fill="#e8d0ff" stroke="#6741d9" stroke-width="1" stroke-dasharray="none" opacity="1.0"/>
<text x="724" y="333.0" fill="#6741d9" font-size="10" font-family="monospace">N1</text>
<rect x="780" y="318" width="36" height="24" rx="8" fill="#a5d8ff" stroke="#1971c2" stroke-width="1" stroke-dasharray="none" opacity="1.0"/>
<text x="787" y="333.0" fill="#1971c2" font-size="10" font-family="monospace">G2</text>
<rect x="822" y="318" width="36" height="24" rx="8" fill="#e8d0ff" stroke="#6741d9" stroke-width="1" stroke-dasharray="none" opacity="1.0"/>
<text x="829" y="333.0" fill="#6741d9" font-size="10" font-family="monospace">N2</text>
<rect x="885" y="318" width="36" height="24" rx="8" fill="#a5d8ff" stroke="#1971c2" stroke-width="1" stroke-dasharray="none" opacity="1.0"/>
<text x="892" y="333.0" fill="#1971c2" font-size="10" font-family="monospace">G3</text>
<rect x="927" y="318" width="36" height="24" rx="8" fill="#e8d0ff" stroke="#6741d9" stroke-width="1" stroke-dasharray="none" opacity="1.0"/>
<text x="934" y="333.0" fill="#6741d9" font-size="10" font-family="monospace">N3</text>
<rect x="562" y="80" width="91" height="270" rx="8" fill="none" stroke="#2f9e44" stroke-width="2" stroke-dasharray="5,5" opacity="1.0"/>
<text x="577" y="363.0" fill="#2f9e44" font-size="10" font-family="monospace">NUMA 0</text>
<rect x="667" y="80" width="91" height="270" rx="8" fill="none" stroke="#1971c2" stroke-width="2" stroke-dasharray="5,5" opacity="1.0"/>
<text x="682" y="363.0" fill="#1971c2" font-size="10" font-family="monospace">NUMA 1</text>
<rect x="772" y="80" width="91" height="270" rx="8" fill="none" stroke="#6741d9" stroke-width="2" stroke-dasharray="5,5" opacity="1.0"/>
<text x="787" y="363.0" fill="#6741d9" font-size="10" font-family="monospace">NUMA 2</text>
<rect x="877" y="80" width="91" height="270" rx="8" fill="none" stroke="#e03131" stroke-width="2" stroke-dasharray="5,5" opacity="1.0"/>
<text x="892" y="363.0" fill="#e03131" font-size="10" font-family="monospace">NUMA 3</text>
<rect x="555" y="372" width="436" height="55" rx="8" fill="#fff5f5" stroke="#e03131" stroke-width="2" stroke-dasharray="none" opacity="1.0"/>
<text x="568" y="390.0" fill="#1e1e1e" font-size="13" font-family="monospace">matchAttribute: numaNode (scalar)</text>
<text x="568" y="406.0" fill="#495057" font-size="12" font-family="monospace">G0: 0    N2: 2</text>
<text x="568" y="423.0" fill="#e03131" font-size="13" font-family="monospace">NO MATCH</text>
<rect x="50" y="442" width="960" height="55" rx="8" fill="#f8f9fa" stroke="#495057" stroke-width="1" stroke-dasharray="none" opacity="1.0"/>
<text x="65" y="461.0" fill="#1e1e1e" font-size="14" font-family="monospace">PCIe roots: identical.  Devices: identical.  CPUs: identical.</text>
<text x="65" y="481.0" fill="#e8590c" font-size="14" font-family="monospace">The ONLY change is how DRAM is split across memory controllers.</text>
<text x="65" y="498.0" fill="#e8590c" font-size="14" font-family="monospace">numaNode measures memory controller proximity -- nothing else.</text>
</svg>