<?xml version='1.0' encoding='utf-8'?>
<svg xmlns="http://www.w3.org/2000/svg" version="1.1" viewBox="10 -20 960 497.5" width="960" height="497">
  <defs>
    <marker id="arrowhead" markerWidth="10" markerHeight="7" refX="10" refY="3.5" orient="auto">
      <polygon points="0 0, 10 3.5, 0 7" fill="#1e1e1e" />
    </marker>
  </defs>
  <rect x="10" y="-20" width="960" height="497.5" fill="#ffffff" />
  <g opacity="1.0">
    <text x="250" y="18.0" font-size="18" font-family="Cascadia, monospace" fill="#1e1e1e" text-anchor="start">pcieRoot — NCCL Proxy (XE8640, 4x H100)</text>
  </g>
  <rect x="30" y="40" width="550" height="340" fill="#ebfbee" stroke="#2f9e44" stroke-width="2" opacity="1.0" rx="34.0" ry="34.0" />
  <g opacity="1.0">
    <text x="213.2" y="68.0" font-size="18" font-family="Cascadia, monospace" fill="#1e1e1e" text-anchor="start">Socket 0 — NUMA 0</text>
  </g>
  <rect x="620" y="40" width="330" height="340" fill="#ebfbee" stroke="#2f9e44" stroke-width="2" opacity="1.0" rx="33.0" ry="33.0" />
  <g opacity="1.0">
    <text x="693.2" y="68.0" font-size="18" font-family="Cascadia, monospace" fill="#1e1e1e" text-anchor="start">Socket 1 — NUMA 1</text>
  </g>
  <rect x="50" y="90" width="240" height="50" fill="#e9ecef" stroke="#868e96" stroke-width="2" opacity="1.0" rx="5.0" ry="5.0" />
  <g opacity="1.0">
    <text x="87.2" y="121.0" font-size="12" font-family="Cascadia, monospace" fill="#1e1e1e" text-anchor="start">Switch SW0 (pci0000:48)</text>
  </g>
  <rect x="320" y="90" width="240" height="50" fill="#d0ebff" stroke="#1971c2" stroke-width="2" opacity="1.0" rx="5.0" ry="5.0" />
  <g opacity="1.0">
    <text x="357.2" y="121.0" font-size="12" font-family="Cascadia, monospace" fill="#1e1e1e" text-anchor="start">Switch SW1 (pci0000:59)</text>
  </g>
  <rect x="80" y="200" width="100" height="50" fill="#e9ecef" stroke="#868e96" stroke-width="2" opacity="1.0" rx="5.0" ry="5.0" />
  <g opacity="1.0">
    <text x="108.4" y="220.5" font-size="12" font-family="Cascadia, monospace" fill="#1e1e1e" text-anchor="start">GPU 4e</text>
  </g>
  <g opacity="1.0">
    <text x="116.8" y="239.0" font-size="11" font-family="Cascadia, monospace" fill="#1e1e1e" text-anchor="start">H100</text>
  </g>
  <path d="M170,140 L130,200" fill="none" stroke="#495057" stroke-width="1" opacity="1.0" />
  <rect x="330" y="200" width="100" height="50" fill="#b2f2bb" stroke="#2f9e44" stroke-width="2" opacity="1.0" rx="5.0" ry="5.0" />
  <g opacity="1.0">
    <text x="358.4" y="220.5" font-size="12" font-family="Cascadia, monospace" fill="#1e1e1e" text-anchor="start">GPU 5f</text>
  </g>
  <g opacity="1.0">
    <text x="363.5" y="239.0" font-size="11" font-family="Cascadia, monospace" fill="#1e1e1e" text-anchor="start">PROXY</text>
  </g>
  <rect x="450" y="200" width="100" height="50" fill="#b2f2bb" stroke="#2f9e44" stroke-width="2" opacity="1.0" rx="5.0" ry="5.0" />
  <g opacity="1.0">
    <text x="471.2" y="220.5" font-size="12" font-family="Cascadia, monospace" fill="#1e1e1e" text-anchor="start">E810 NIC</text>
  </g>
  <g opacity="1.0">
    <text x="493.4" y="239.0" font-size="11" font-family="Cascadia, monospace" fill="#1e1e1e" text-anchor="start">5e</text>
  </g>
  <path d="M440,140 L380,200" fill="none" stroke="#495057" stroke-width="1" opacity="1.0" />
  <path d="M440,140 L500,200" fill="none" stroke="#495057" stroke-width="1" opacity="1.0" />
  <rect x="640" y="90" width="130" height="50" fill="#e9ecef" stroke="#868e96" stroke-width="2" opacity="1.0" rx="5.0" ry="5.0" />
  <g opacity="1.0">
    <text x="694.2" y="121.0" font-size="12" font-family="Cascadia, monospace" fill="#1e1e1e" text-anchor="start">SW2</text>
  </g>
  <rect x="800" y="90" width="130" height="50" fill="#e9ecef" stroke="#868e96" stroke-width="2" opacity="1.0" rx="5.0" ry="5.0" />
  <g opacity="1.0">
    <text x="854.2" y="121.0" font-size="12" font-family="Cascadia, monospace" fill="#1e1e1e" text-anchor="start">SW3</text>
  </g>
  <rect x="660" y="200" width="90" height="50" fill="#e9ecef" stroke="#868e96" stroke-width="2" opacity="1.0" rx="5.0" ry="5.0" />
  <g opacity="1.0">
    <text x="683.4" y="220.5" font-size="12" font-family="Cascadia, monospace" fill="#1e1e1e" text-anchor="start">GPU cb</text>
  </g>
  <g opacity="1.0">
    <text x="691.8" y="239.0" font-size="11" font-family="Cascadia, monospace" fill="#1e1e1e" text-anchor="start">H100</text>
  </g>
  <path d="M705,140 L705,200" fill="none" stroke="#495057" stroke-width="1" opacity="1.0" />
  <rect x="820" y="200" width="90" height="50" fill="#e9ecef" stroke="#868e96" stroke-width="2" opacity="1.0" rx="5.0" ry="5.0" />
  <g opacity="1.0">
    <text x="843.4" y="220.5" font-size="12" font-family="Cascadia, monospace" fill="#1e1e1e" text-anchor="start">GPU db</text>
  </g>
  <g opacity="1.0">
    <text x="851.8" y="239.0" font-size="11" font-family="Cascadia, monospace" fill="#1e1e1e" text-anchor="start">H100</text>
  </g>
  <path d="M865,140 L865,200" fill="none" stroke="#495057" stroke-width="1" opacity="1.0" />
  <g opacity="1.0">
    <text x="30" y="414.0" font-size="14" font-family="Cascadia, monospace" fill="#2f9e44" text-anchor="start">Green = NCCL proxy pair (GPU + NIC share pcieRoot)</text>
  </g>
  <g opacity="1.0">
    <text x="30" y="454.0" font-size="14" font-family="Cascadia, monospace" fill="#495057" text-anchor="start">Yield: 1 of 4 GPUs qualifies for pcieRoot match with NIC (25%)</text>
  </g>
  <path d="M130,250 L130,265" fill="none" stroke="#2f9e44" stroke-width="1" opacity="1.0" stroke-dasharray="4,3" />
  <path d="M130,265 L380,265" fill="none" stroke="#2f9e44" stroke-width="1" opacity="1.0" stroke-dasharray="4,3" />
  <path d="M380,265 L380,250" fill="none" stroke="#2f9e44" stroke-width="1" opacity="1.0" stroke-dasharray="4,3" />
  <path d="M130,250 L130,285" fill="none" stroke="#2f9e44" stroke-width="1" opacity="1.0" stroke-dasharray="4,3" />
  <path d="M130,285 L705,285" fill="none" stroke="#2f9e44" stroke-width="1" opacity="1.0" stroke-dasharray="4,3" />
  <path d="M705,285 L705,250" fill="none" stroke="#2f9e44" stroke-width="1" opacity="1.0" stroke-dasharray="4,3" />
  <path d="M130,250 L130,295" fill="none" stroke="#2f9e44" stroke-width="1" opacity="1.0" stroke-dasharray="4,3" />
  <path d="M130,295 L865,295" fill="none" stroke="#2f9e44" stroke-width="1" opacity="1.0" stroke-dasharray="4,3" />
  <path d="M865,295 L865,250" fill="none" stroke="#2f9e44" stroke-width="1" opacity="1.0" stroke-dasharray="4,3" />
  <path d="M380,250 L380,275" fill="none" stroke="#2f9e44" stroke-width="1" opacity="1.0" stroke-dasharray="4,3" />
  <path d="M380,275 L705,275" fill="none" stroke="#2f9e44" stroke-width="1" opacity="1.0" stroke-dasharray="4,3" />
  <path d="M705,275 L705,250" fill="none" stroke="#2f9e44" stroke-width="1" opacity="1.0" stroke-dasharray="4,3" />
  <path d="M380,250 L380,285" fill="none" stroke="#2f9e44" stroke-width="1" opacity="1.0" stroke-dasharray="4,3" />
  <path d="M380,285 L865,285" fill="none" stroke="#2f9e44" stroke-width="1" opacity="1.0" stroke-dasharray="4,3" />
  <path d="M865,285 L865,250" fill="none" stroke="#2f9e44" stroke-width="1" opacity="1.0" stroke-dasharray="4,3" />
  <path d="M705,250 L705,265" fill="none" stroke="#2f9e44" stroke-width="1" opacity="1.0" stroke-dasharray="4,3" />
  <path d="M705,265 L865,265" fill="none" stroke="#2f9e44" stroke-width="1" opacity="1.0" stroke-dasharray="4,3" />
  <path d="M865,265 L865,250" fill="none" stroke="#2f9e44" stroke-width="1" opacity="1.0" stroke-dasharray="4,3" />
  <g opacity="1.0">
    <text x="30" y="322.0" font-size="12" font-family="Cascadia, monospace" fill="#2f9e44" text-anchor="start">Dashed green = NVLink mesh</text>
  </g>
</svg>