<?xml version='1.0' encoding='utf-8'?>
<svg xmlns="http://www.w3.org/2000/svg" version="1.1" viewBox="10 -20 1041 526.25" width="1041" height="526">
  <defs>
    <marker id="arrowhead" markerWidth="10" markerHeight="7" refX="10" refY="3.5" orient="auto">
      <polygon points="0 0, 10 3.5, 0 7" fill="#1e1e1e" />
    </marker>
  </defs>
  <rect x="10" y="-20" width="1041" height="526.25" fill="#ffffff" />
  <g opacity="1.0">
    <text x="200" y="18.0" font-size="18" font-family="Cascadia, monospace" fill="#1e1e1e" text-anchor="start">numaNode — Training Pod (XE9680, 8x MI300X)</text>
  </g>
  <rect x="30" y="40" width="480" height="370" fill="#ebfbee" stroke="#2f9e44" stroke-width="2" opacity="1.0" rx="37.0" ry="37.0" />
  <g opacity="1.0">
    <text x="169.2" y="67.0" font-size="16" font-family="Cascadia, monospace" fill="#1e1e1e" text-anchor="start">Training Pod — NUMA 0</text>
  </g>
  <rect x="50" y="85" width="180" height="36" fill="#d0ebff" stroke="#1971c2" stroke-width="2" opacity="1.0" rx="3.6" ry="3.6" />
  <g opacity="1.0">
    <text x="74.0" y="108.5" font-size="11" font-family="Cascadia, monospace" fill="#1e1e1e" text-anchor="start">Switch (shared root)</text>
  </g>
  <rect x="250" y="85" width="80" height="36" fill="#e9ecef" stroke="#868e96" stroke-width="2" opacity="1.0" rx="3.6" ry="3.6" />
  <g opacity="1.0">
    <text x="263.0" y="107.5" font-size="9" font-family="Cascadia, monospace" fill="#1e1e1e" text-anchor="start">pci0000:37</text>
  </g>
  <rect x="338" y="85" width="80" height="36" fill="#e9ecef" stroke="#868e96" stroke-width="2" opacity="1.0" rx="3.6" ry="3.6" />
  <g opacity="1.0">
    <text x="351.0" y="107.5" font-size="9" font-family="Cascadia, monospace" fill="#1e1e1e" text-anchor="start">pci0000:48</text>
  </g>
  <rect x="426" y="85" width="80" height="36" fill="#e9ecef" stroke="#868e96" stroke-width="2" opacity="1.0" rx="3.6" ry="3.6" />
  <g opacity="1.0">
    <text x="439.0" y="107.5" font-size="9" font-family="Cascadia, monospace" fill="#1e1e1e" text-anchor="start">pci0000:59</text>
  </g>
  <rect x="55" y="155" width="90" height="48" fill="#b2f2bb" stroke="#2f9e44" stroke-width="2" opacity="1.0" rx="4.800000000000001" ry="4.800000000000001" />
  <g opacity="1.0">
    <text x="78.4" y="175.0" font-size="12" font-family="Cascadia, monospace" fill="#1e1e1e" text-anchor="start">GPU 1b</text>
  </g>
  <g opacity="1.0">
    <text x="83.5" y="192.5" font-size="11" font-family="Cascadia, monospace" fill="#1e1e1e" text-anchor="start">PROXY</text>
  </g>
  <path d="M100,121 L100,155" fill="none" stroke="#495057" stroke-width="1" opacity="1.0" />
  <rect x="135" y="155" width="90" height="48" fill="#b2f2bb" stroke="#2f9e44" stroke-width="2" opacity="1.0" rx="4.800000000000001" ry="4.800000000000001" />
  <g opacity="1.0">
    <text x="158.4" y="175.0" font-size="12" font-family="Cascadia, monospace" fill="#1e1e1e" text-anchor="start">NIC 1d</text>
  </g>
  <g opacity="1.0">
    <text x="156.9" y="192.5" font-size="11" font-family="Cascadia, monospace" fill="#1e1e1e" text-anchor="start">CX-6 Dx</text>
  </g>
  <path d="M180,121 L180,155" fill="none" stroke="#495057" stroke-width="1" opacity="1.0" />
  <rect x="245" y="155" width="90" height="48" fill="#a5d8ff" stroke="#1971c2" stroke-width="2" opacity="1.0" rx="4.800000000000001" ry="4.800000000000001" />
  <g opacity="1.0">
    <text x="268.4" y="175.0" font-size="12" font-family="Cascadia, monospace" fill="#1e1e1e" text-anchor="start">GPU 3d</text>
  </g>
  <g opacity="1.0">
    <text x="270.2" y="192.5" font-size="11" font-family="Cascadia, monospace" fill="#1e1e1e" text-anchor="start">MI300X</text>
  </g>
  <path d="M290,121 L290,155" fill="none" stroke="#495057" stroke-width="1" opacity="1.0" />
  <rect x="333" y="155" width="90" height="48" fill="#a5d8ff" stroke="#1971c2" stroke-width="2" opacity="1.0" rx="4.800000000000001" ry="4.800000000000001" />
  <g opacity="1.0">
    <text x="356.4" y="175.0" font-size="12" font-family="Cascadia, monospace" fill="#1e1e1e" text-anchor="start">GPU 4e</text>
  </g>
  <g opacity="1.0">
    <text x="358.2" y="192.5" font-size="11" font-family="Cascadia, monospace" fill="#1e1e1e" text-anchor="start">MI300X</text>
  </g>
  <path d="M378,121 L378,155" fill="none" stroke="#495057" stroke-width="1" opacity="1.0" />
  <rect x="421" y="155" width="90" height="48" fill="#a5d8ff" stroke="#1971c2" stroke-width="2" opacity="1.0" rx="4.800000000000001" ry="4.800000000000001" />
  <g opacity="1.0">
    <text x="444.4" y="175.0" font-size="12" font-family="Cascadia, monospace" fill="#1e1e1e" text-anchor="start">GPU 5f</text>
  </g>
  <g opacity="1.0">
    <text x="446.2" y="192.5" font-size="11" font-family="Cascadia, monospace" fill="#1e1e1e" text-anchor="start">MI300X</text>
  </g>
  <path d="M466,121 L466,155" fill="none" stroke="#495057" stroke-width="1" opacity="1.0" />
  <path d="M290,203 L290,215" fill="none" stroke="#2f9e44" stroke-width="1" opacity="1.0" stroke-dasharray="4,3" />
  <path d="M290,215 L378,215" fill="none" stroke="#2f9e44" stroke-width="1" opacity="1.0" stroke-dasharray="4,3" />
  <path d="M378,215 L378,203" fill="none" stroke="#2f9e44" stroke-width="1" opacity="1.0" stroke-dasharray="4,3" />
  <path d="M378,203 L378,225" fill="none" stroke="#2f9e44" stroke-width="1" opacity="1.0" stroke-dasharray="4,3" />
  <path d="M378,225 L466,225" fill="none" stroke="#2f9e44" stroke-width="1" opacity="1.0" stroke-dasharray="4,3" />
  <path d="M466,225 L466,203" fill="none" stroke="#2f9e44" stroke-width="1" opacity="1.0" stroke-dasharray="4,3" />
  <path d="M290,203 L290,235" fill="none" stroke="#2f9e44" stroke-width="1" opacity="1.0" stroke-dasharray="4,3" />
  <path d="M290,235 L466,235" fill="none" stroke="#2f9e44" stroke-width="1" opacity="1.0" stroke-dasharray="4,3" />
  <path d="M466,235 L466,203" fill="none" stroke="#2f9e44" stroke-width="1" opacity="1.0" stroke-dasharray="4,3" />
  <path d="M100,203 L100,245" fill="none" stroke="#2f9e44" stroke-width="1" opacity="1.0" stroke-dasharray="4,3" />
  <path d="M100,245 L290,245" fill="none" stroke="#2f9e44" stroke-width="1" opacity="1.0" stroke-dasharray="4,3" />
  <path d="M290,245 L290,203" fill="none" stroke="#2f9e44" stroke-width="1" opacity="1.0" stroke-dasharray="4,3" />
  <path d="M100,203 L100,255" fill="none" stroke="#2f9e44" stroke-width="1" opacity="1.0" stroke-dasharray="4,3" />
  <path d="M100,255 L378,255" fill="none" stroke="#2f9e44" stroke-width="1" opacity="1.0" stroke-dasharray="4,3" />
  <path d="M378,255 L378,203" fill="none" stroke="#2f9e44" stroke-width="1" opacity="1.0" stroke-dasharray="4,3" />
  <path d="M100,203 L100,265" fill="none" stroke="#2f9e44" stroke-width="1" opacity="1.0" stroke-dasharray="4,3" />
  <path d="M100,265 L466,265" fill="none" stroke="#2f9e44" stroke-width="1" opacity="1.0" stroke-dasharray="4,3" />
  <path d="M466,265 L466,203" fill="none" stroke="#2f9e44" stroke-width="1" opacity="1.0" stroke-dasharray="4,3" />
  <rect x="60" y="310" width="100" height="40" fill="#a5d8ff" stroke="#1971c2" stroke-width="2" opacity="1.0" rx="4.0" ry="4.0" />
  <g opacity="1.0">
    <text x="84.8" y="328.0" font-size="12" font-family="Cascadia, monospace" fill="#1e1e1e" text-anchor="start">64 CPUs</text>
  </g>
  <g opacity="1.0">
    <text x="90.2" y="341.5" font-size="11" font-family="Cascadia, monospace" fill="#1e1e1e" text-anchor="start">(even)</text>
  </g>
  <rect x="180" y="310" width="100" height="40" fill="#a5d8ff" stroke="#1971c2" stroke-width="2" opacity="1.0" rx="4.0" ry="4.0" />
  <g opacity="1.0">
    <text x="212.0" y="328.0" font-size="12" font-family="Cascadia, monospace" fill="#1e1e1e" text-anchor="start">~1 TB</text>
  </g>
  <g opacity="1.0">
    <text x="210.2" y="341.5" font-size="11" font-family="Cascadia, monospace" fill="#1e1e1e" text-anchor="start">memory</text>
  </g>
  <rect x="550" y="40" width="480" height="370" fill="#ebfbee" stroke="#2f9e44" stroke-width="2" opacity="1.0" rx="37.0" ry="37.0" />
  <g opacity="1.0">
    <text x="689.2" y="67.0" font-size="16" font-family="Cascadia, monospace" fill="#1e1e1e" text-anchor="start">Training Pod — NUMA 1</text>
  </g>
  <rect x="570" y="85" width="180" height="36" fill="#d0ebff" stroke="#1971c2" stroke-width="2" opacity="1.0" rx="3.6" ry="3.6" />
  <g opacity="1.0">
    <text x="594.0" y="108.5" font-size="11" font-family="Cascadia, monospace" fill="#1e1e1e" text-anchor="start">Switch (shared root)</text>
  </g>
  <rect x="770" y="85" width="80" height="36" fill="#e9ecef" stroke="#868e96" stroke-width="2" opacity="1.0" rx="3.6" ry="3.6" />
  <g opacity="1.0">
    <text x="783.0" y="107.5" font-size="9" font-family="Cascadia, monospace" fill="#1e1e1e" text-anchor="start">pci0000:b7</text>
  </g>
  <rect x="858" y="85" width="80" height="36" fill="#e9ecef" stroke="#868e96" stroke-width="2" opacity="1.0" rx="3.6" ry="3.6" />
  <g opacity="1.0">
    <text x="871.0" y="107.5" font-size="9" font-family="Cascadia, monospace" fill="#1e1e1e" text-anchor="start">pci0000:c7</text>
  </g>
  <rect x="946" y="85" width="80" height="36" fill="#e9ecef" stroke="#868e96" stroke-width="2" opacity="1.0" rx="3.6" ry="3.6" />
  <g opacity="1.0">
    <text x="959.0" y="107.5" font-size="9" font-family="Cascadia, monospace" fill="#1e1e1e" text-anchor="start">pci0000:d7</text>
  </g>
  <rect x="575" y="155" width="90" height="48" fill="#b2f2bb" stroke="#2f9e44" stroke-width="2" opacity="1.0" rx="4.800000000000001" ry="4.800000000000001" />
  <g opacity="1.0">
    <text x="598.4" y="175.0" font-size="12" font-family="Cascadia, monospace" fill="#1e1e1e" text-anchor="start">GPU 9d</text>
  </g>
  <g opacity="1.0">
    <text x="603.5" y="192.5" font-size="11" font-family="Cascadia, monospace" fill="#1e1e1e" text-anchor="start">PROXY</text>
  </g>
  <path d="M620,121 L620,155" fill="none" stroke="#495057" stroke-width="1" opacity="1.0" />
  <rect x="655" y="155" width="90" height="48" fill="#b2f2bb" stroke="#2f9e44" stroke-width="2" opacity="1.0" rx="4.800000000000001" ry="4.800000000000001" />
  <g opacity="1.0">
    <text x="678.4" y="175.0" font-size="12" font-family="Cascadia, monospace" fill="#1e1e1e" text-anchor="start">NIC 9f</text>
  </g>
  <g opacity="1.0">
    <text x="676.9" y="192.5" font-size="11" font-family="Cascadia, monospace" fill="#1e1e1e" text-anchor="start">CX-6 Dx</text>
  </g>
  <path d="M700,121 L700,155" fill="none" stroke="#495057" stroke-width="1" opacity="1.0" />
  <rect x="765" y="155" width="90" height="48" fill="#a5d8ff" stroke="#1971c2" stroke-width="2" opacity="1.0" rx="4.800000000000001" ry="4.800000000000001" />
  <g opacity="1.0">
    <text x="788.4" y="175.0" font-size="12" font-family="Cascadia, monospace" fill="#1e1e1e" text-anchor="start">GPU bd</text>
  </g>
  <g opacity="1.0">
    <text x="790.2" y="192.5" font-size="11" font-family="Cascadia, monospace" fill="#1e1e1e" text-anchor="start">MI300X</text>
  </g>
  <path d="M810,121 L810,155" fill="none" stroke="#495057" stroke-width="1" opacity="1.0" />
  <rect x="853" y="155" width="90" height="48" fill="#a5d8ff" stroke="#1971c2" stroke-width="2" opacity="1.0" rx="4.800000000000001" ry="4.800000000000001" />
  <g opacity="1.0">
    <text x="876.4" y="175.0" font-size="12" font-family="Cascadia, monospace" fill="#1e1e1e" text-anchor="start">GPU cd</text>
  </g>
  <g opacity="1.0">
    <text x="878.2" y="192.5" font-size="11" font-family="Cascadia, monospace" fill="#1e1e1e" text-anchor="start">MI300X</text>
  </g>
  <path d="M898,121 L898,155" fill="none" stroke="#495057" stroke-width="1" opacity="1.0" />
  <rect x="941" y="155" width="90" height="48" fill="#a5d8ff" stroke="#1971c2" stroke-width="2" opacity="1.0" rx="4.800000000000001" ry="4.800000000000001" />
  <g opacity="1.0">
    <text x="964.4" y="175.0" font-size="12" font-family="Cascadia, monospace" fill="#1e1e1e" text-anchor="start">GPU dd</text>
  </g>
  <g opacity="1.0">
    <text x="966.2" y="192.5" font-size="11" font-family="Cascadia, monospace" fill="#1e1e1e" text-anchor="start">MI300X</text>
  </g>
  <path d="M986,121 L986,155" fill="none" stroke="#495057" stroke-width="1" opacity="1.0" />
  <path d="M810,203 L810,215" fill="none" stroke="#2f9e44" stroke-width="1" opacity="1.0" stroke-dasharray="4,3" />
  <path d="M810,215 L898,215" fill="none" stroke="#2f9e44" stroke-width="1" opacity="1.0" stroke-dasharray="4,3" />
  <path d="M898,215 L898,203" fill="none" stroke="#2f9e44" stroke-width="1" opacity="1.0" stroke-dasharray="4,3" />
  <path d="M898,203 L898,225" fill="none" stroke="#2f9e44" stroke-width="1" opacity="1.0" stroke-dasharray="4,3" />
  <path d="M898,225 L986,225" fill="none" stroke="#2f9e44" stroke-width="1" opacity="1.0" stroke-dasharray="4,3" />
  <path d="M986,225 L986,203" fill="none" stroke="#2f9e44" stroke-width="1" opacity="1.0" stroke-dasharray="4,3" />
  <path d="M810,203 L810,235" fill="none" stroke="#2f9e44" stroke-width="1" opacity="1.0" stroke-dasharray="4,3" />
  <path d="M810,235 L986,235" fill="none" stroke="#2f9e44" stroke-width="1" opacity="1.0" stroke-dasharray="4,3" />
  <path d="M986,235 L986,203" fill="none" stroke="#2f9e44" stroke-width="1" opacity="1.0" stroke-dasharray="4,3" />
  <path d="M620,203 L620,245" fill="none" stroke="#2f9e44" stroke-width="1" opacity="1.0" stroke-dasharray="4,3" />
  <path d="M620,245 L810,245" fill="none" stroke="#2f9e44" stroke-width="1" opacity="1.0" stroke-dasharray="4,3" />
  <path d="M810,245 L810,203" fill="none" stroke="#2f9e44" stroke-width="1" opacity="1.0" stroke-dasharray="4,3" />
  <path d="M620,203 L620,255" fill="none" stroke="#2f9e44" stroke-width="1" opacity="1.0" stroke-dasharray="4,3" />
  <path d="M620,255 L898,255" fill="none" stroke="#2f9e44" stroke-width="1" opacity="1.0" stroke-dasharray="4,3" />
  <path d="M898,255 L898,203" fill="none" stroke="#2f9e44" stroke-width="1" opacity="1.0" stroke-dasharray="4,3" />
  <path d="M620,203 L620,265" fill="none" stroke="#2f9e44" stroke-width="1" opacity="1.0" stroke-dasharray="4,3" />
  <path d="M620,265 L986,265" fill="none" stroke="#2f9e44" stroke-width="1" opacity="1.0" stroke-dasharray="4,3" />
  <path d="M986,265 L986,203" fill="none" stroke="#2f9e44" stroke-width="1" opacity="1.0" stroke-dasharray="4,3" />
  <rect x="580" y="310" width="100" height="40" fill="#a5d8ff" stroke="#1971c2" stroke-width="2" opacity="1.0" rx="4.0" ry="4.0" />
  <g opacity="1.0">
    <text x="604.8" y="328.0" font-size="12" font-family="Cascadia, monospace" fill="#1e1e1e" text-anchor="start">64 CPUs</text>
  </g>
  <g opacity="1.0">
    <text x="613.5" y="341.5" font-size="11" font-family="Cascadia, monospace" fill="#1e1e1e" text-anchor="start">(odd)</text>
  </g>
  <rect x="700" y="310" width="100" height="40" fill="#a5d8ff" stroke="#1971c2" stroke-width="2" opacity="1.0" rx="4.0" ry="4.0" />
  <g opacity="1.0">
    <text x="732.0" y="328.0" font-size="12" font-family="Cascadia, monospace" fill="#1e1e1e" text-anchor="start">~1 TB</text>
  </g>
  <g opacity="1.0">
    <text x="730.2" y="341.5" font-size="11" font-family="Cascadia, monospace" fill="#1e1e1e" text-anchor="start">memory</text>
  </g>
  <g opacity="1.0">
    <text x="60" y="215.0" font-size="10" font-family="Cascadia, monospace" fill="#2f9e44" text-anchor="start">xGMI (dashed)</text>
  </g>
  <g opacity="1.0">
    <text x="580" y="215.0" font-size="10" font-family="Cascadia, monospace" fill="#2f9e44" text-anchor="start">xGMI (dashed)</text>
  </g>
  <g opacity="1.0">
    <text x="30" y="443.0" font-size="13" font-family="Cascadia, monospace" fill="#2f9e44" text-anchor="start">Green = RCCL proxy pair (GPU + NIC on shared pcieRoot switch)</text>
  </g>
  <g opacity="1.0">
    <text x="30" y="463.0" font-size="13" font-family="Cascadia, monospace" fill="#1971c2" text-anchor="start">Blue = other GPUs on same NUMA (different root ports, connected via xGMI)</text>
  </g>
  <g opacity="1.0">
    <text x="30" y="483.0" font-size="13" font-family="Cascadia, monospace" fill="#495057" text-anchor="start">Yield: 8 of 8 GPUs usable (100%) — 2 independent training groups</text>
  </g>
</svg>