<?xml version='1.0' encoding='utf-8'?>
<svg xmlns="http://www.w3.org/2000/svg" version="1.1" viewBox="10 -20 1010 482.25" width="1010" height="482">
  <defs>
    <marker id="arrowhead" markerWidth="10" markerHeight="7" refX="10" refY="3.5" orient="auto">
      <polygon points="0 0, 10 3.5, 0 7" fill="#1e1e1e" />
    </marker>
  </defs>
  <rect x="10" y="-20" width="1010" height="482.25" fill="#ffffff" />
  <g opacity="1.0">
    <text x="200" y="18.0" font-size="18" font-family="Cascadia, monospace" fill="#1e1e1e" text-anchor="start">numaNode — Training Pod (XE9680, 8x MI300X)</text>
  </g>
  <rect x="30" y="40" width="470" height="330" fill="#ebfbee" stroke="#2f9e44" stroke-width="2" opacity="1.0" rx="33.0" ry="33.0" />
  <g opacity="1.0">
    <text x="164.2" y="67.0" font-size="16" font-family="Cascadia, monospace" fill="#1e1e1e" text-anchor="start">Training Pod — NUMA 0</text>
  </g>
  <rect x="50" y="85" width="210" height="40" fill="#d0ebff" stroke="#1971c2" stroke-width="2" opacity="1.0" rx="4.0" ry="4.0" />
  <g opacity="1.0">
    <text x="89.0" y="110.5" font-size="11" font-family="Cascadia, monospace" fill="#1e1e1e" text-anchor="start">Switch (shared root)</text>
  </g>
  <rect x="55" y="150" width="90" height="45" fill="#b2f2bb" stroke="#2f9e44" stroke-width="2" opacity="1.0" rx="4.5" ry="4.5" />
  <g opacity="1.0">
    <text x="78.4" y="169.25" font-size="12" font-family="Cascadia, monospace" fill="#1e1e1e" text-anchor="start">GPU 1b</text>
  </g>
  <g opacity="1.0">
    <text x="83.5" y="185.25" font-size="11" font-family="Cascadia, monospace" fill="#1e1e1e" text-anchor="start">PROXY</text>
  </g>
  <rect x="160" y="150" width="90" height="45" fill="#b2f2bb" stroke="#2f9e44" stroke-width="2" opacity="1.0" rx="4.5" ry="4.5" />
  <g opacity="1.0">
    <text x="183.4" y="169.25" font-size="12" font-family="Cascadia, monospace" fill="#1e1e1e" text-anchor="start">NIC 1d</text>
  </g>
  <g opacity="1.0">
    <text x="181.9" y="185.25" font-size="11" font-family="Cascadia, monospace" fill="#1e1e1e" text-anchor="start">CX-6 Dx</text>
  </g>
  <path d="M155,125 L100,150" fill="none" stroke="#495057" stroke-width="1" opacity="1.0" />
  <path d="M155,125 L205,150" fill="none" stroke="#495057" stroke-width="1" opacity="1.0" />
  <rect x="280" y="85" width="65" height="40" fill="#e9ecef" stroke="#868e96" stroke-width="2" opacity="1.0" rx="4.0" ry="4.0" />
  <rect x="278" y="150" width="65" height="45" fill="#a5d8ff" stroke="#1971c2" stroke-width="2" opacity="1.0" rx="4.5" ry="4.5" />
  <g opacity="1.0">
    <text x="288.9" y="169.25" font-size="12" font-family="Cascadia, monospace" fill="#1e1e1e" text-anchor="start">GPU 3d</text>
  </g>
  <g opacity="1.0">
    <text x="290.7" y="185.25" font-size="11" font-family="Cascadia, monospace" fill="#1e1e1e" text-anchor="start">MI300X</text>
  </g>
  <path d="M312,125 L310,150" fill="none" stroke="#495057" stroke-width="1" opacity="1.0" />
  <rect x="355" y="85" width="65" height="40" fill="#e9ecef" stroke="#868e96" stroke-width="2" opacity="1.0" rx="4.0" ry="4.0" />
  <rect x="353" y="150" width="65" height="45" fill="#a5d8ff" stroke="#1971c2" stroke-width="2" opacity="1.0" rx="4.5" ry="4.5" />
  <g opacity="1.0">
    <text x="363.9" y="169.25" font-size="12" font-family="Cascadia, monospace" fill="#1e1e1e" text-anchor="start">GPU 4e</text>
  </g>
  <g opacity="1.0">
    <text x="365.7" y="185.25" font-size="11" font-family="Cascadia, monospace" fill="#1e1e1e" text-anchor="start">MI300X</text>
  </g>
  <path d="M387,125 L385,150" fill="none" stroke="#495057" stroke-width="1" opacity="1.0" />
  <rect x="430" y="85" width="65" height="40" fill="#e9ecef" stroke="#868e96" stroke-width="2" opacity="1.0" rx="4.0" ry="4.0" />
  <rect x="428" y="150" width="65" height="45" fill="#a5d8ff" stroke="#1971c2" stroke-width="2" opacity="1.0" rx="4.5" ry="4.5" />
  <g opacity="1.0">
    <text x="438.9" y="169.25" font-size="12" font-family="Cascadia, monospace" fill="#1e1e1e" text-anchor="start">GPU 5f</text>
  </g>
  <g opacity="1.0">
    <text x="440.7" y="185.25" font-size="11" font-family="Cascadia, monospace" fill="#1e1e1e" text-anchor="start">MI300X</text>
  </g>
  <path d="M462,125 L460,150" fill="none" stroke="#495057" stroke-width="1" opacity="1.0" />
  <rect x="60" y="220" width="90" height="35" fill="#a5d8ff" stroke="#1971c2" stroke-width="2" opacity="1.0" rx="3.5" ry="3.5" />
  <g opacity="1.0">
    <text x="79.8" y="236.75" font-size="12" font-family="Cascadia, monospace" fill="#1e1e1e" text-anchor="start">64 CPUs</text>
  </g>
  <g opacity="1.0">
    <text x="85.2" y="247.75" font-size="11" font-family="Cascadia, monospace" fill="#1e1e1e" text-anchor="start">(even)</text>
  </g>
  <rect x="170" y="220" width="90" height="35" fill="#a5d8ff" stroke="#1971c2" stroke-width="2" opacity="1.0" rx="3.5" ry="3.5" />
  <g opacity="1.0">
    <text x="197.0" y="236.75" font-size="12" font-family="Cascadia, monospace" fill="#1e1e1e" text-anchor="start">~1 TB</text>
  </g>
  <g opacity="1.0">
    <text x="195.2" y="247.75" font-size="11" font-family="Cascadia, monospace" fill="#1e1e1e" text-anchor="start">memory</text>
  </g>
  <rect x="530" y="40" width="470" height="330" fill="#ebfbee" stroke="#2f9e44" stroke-width="2" opacity="1.0" rx="33.0" ry="33.0" />
  <g opacity="1.0">
    <text x="664.2" y="67.0" font-size="16" font-family="Cascadia, monospace" fill="#1e1e1e" text-anchor="start">Training Pod — NUMA 1</text>
  </g>
  <rect x="550" y="85" width="210" height="40" fill="#d0ebff" stroke="#1971c2" stroke-width="2" opacity="1.0" rx="4.0" ry="4.0" />
  <g opacity="1.0">
    <text x="589.0" y="110.5" font-size="11" font-family="Cascadia, monospace" fill="#1e1e1e" text-anchor="start">Switch (shared root)</text>
  </g>
  <rect x="555" y="150" width="90" height="45" fill="#b2f2bb" stroke="#2f9e44" stroke-width="2" opacity="1.0" rx="4.5" ry="4.5" />
  <g opacity="1.0">
    <text x="578.4" y="169.25" font-size="12" font-family="Cascadia, monospace" fill="#1e1e1e" text-anchor="start">GPU 9d</text>
  </g>
  <g opacity="1.0">
    <text x="583.5" y="185.25" font-size="11" font-family="Cascadia, monospace" fill="#1e1e1e" text-anchor="start">PROXY</text>
  </g>
  <rect x="660" y="150" width="90" height="45" fill="#b2f2bb" stroke="#2f9e44" stroke-width="2" opacity="1.0" rx="4.5" ry="4.5" />
  <g opacity="1.0">
    <text x="683.4" y="169.25" font-size="12" font-family="Cascadia, monospace" fill="#1e1e1e" text-anchor="start">NIC 9f</text>
  </g>
  <g opacity="1.0">
    <text x="681.9" y="185.25" font-size="11" font-family="Cascadia, monospace" fill="#1e1e1e" text-anchor="start">CX-6 Dx</text>
  </g>
  <path d="M655,125 L600,150" fill="none" stroke="#495057" stroke-width="1" opacity="1.0" />
  <path d="M655,125 L705,150" fill="none" stroke="#495057" stroke-width="1" opacity="1.0" />
  <rect x="780" y="85" width="65" height="40" fill="#e9ecef" stroke="#868e96" stroke-width="2" opacity="1.0" rx="4.0" ry="4.0" />
  <rect x="778" y="150" width="65" height="45" fill="#a5d8ff" stroke="#1971c2" stroke-width="2" opacity="1.0" rx="4.5" ry="4.5" />
  <g opacity="1.0">
    <text x="788.9" y="169.25" font-size="12" font-family="Cascadia, monospace" fill="#1e1e1e" text-anchor="start">GPU bd</text>
  </g>
  <g opacity="1.0">
    <text x="790.7" y="185.25" font-size="11" font-family="Cascadia, monospace" fill="#1e1e1e" text-anchor="start">MI300X</text>
  </g>
  <path d="M812,125 L810,150" fill="none" stroke="#495057" stroke-width="1" opacity="1.0" />
  <rect x="855" y="85" width="65" height="40" fill="#e9ecef" stroke="#868e96" stroke-width="2" opacity="1.0" rx="4.0" ry="4.0" />
  <rect x="853" y="150" width="65" height="45" fill="#a5d8ff" stroke="#1971c2" stroke-width="2" opacity="1.0" rx="4.5" ry="4.5" />
  <g opacity="1.0">
    <text x="863.9" y="169.25" font-size="12" font-family="Cascadia, monospace" fill="#1e1e1e" text-anchor="start">GPU cd</text>
  </g>
  <g opacity="1.0">
    <text x="865.7" y="185.25" font-size="11" font-family="Cascadia, monospace" fill="#1e1e1e" text-anchor="start">MI300X</text>
  </g>
  <path d="M887,125 L885,150" fill="none" stroke="#495057" stroke-width="1" opacity="1.0" />
  <rect x="930" y="85" width="65" height="40" fill="#e9ecef" stroke="#868e96" stroke-width="2" opacity="1.0" rx="4.0" ry="4.0" />
  <rect x="928" y="150" width="65" height="45" fill="#a5d8ff" stroke="#1971c2" stroke-width="2" opacity="1.0" rx="4.5" ry="4.5" />
  <g opacity="1.0">
    <text x="938.9" y="169.25" font-size="12" font-family="Cascadia, monospace" fill="#1e1e1e" text-anchor="start">GPU dd</text>
  </g>
  <g opacity="1.0">
    <text x="940.7" y="185.25" font-size="11" font-family="Cascadia, monospace" fill="#1e1e1e" text-anchor="start">MI300X</text>
  </g>
  <path d="M962,125 L960,150" fill="none" stroke="#495057" stroke-width="1" opacity="1.0" />
  <rect x="560" y="220" width="90" height="35" fill="#a5d8ff" stroke="#1971c2" stroke-width="2" opacity="1.0" rx="3.5" ry="3.5" />
  <g opacity="1.0">
    <text x="579.8" y="236.75" font-size="12" font-family="Cascadia, monospace" fill="#1e1e1e" text-anchor="start">64 CPUs</text>
  </g>
  <g opacity="1.0">
    <text x="588.5" y="247.75" font-size="11" font-family="Cascadia, monospace" fill="#1e1e1e" text-anchor="start">(odd)</text>
  </g>
  <rect x="670" y="220" width="90" height="35" fill="#a5d8ff" stroke="#1971c2" stroke-width="2" opacity="1.0" rx="3.5" ry="3.5" />
  <g opacity="1.0">
    <text x="697.0" y="236.75" font-size="12" font-family="Cascadia, monospace" fill="#1e1e1e" text-anchor="start">~1 TB</text>
  </g>
  <g opacity="1.0">
    <text x="695.2" y="247.75" font-size="11" font-family="Cascadia, monospace" fill="#1e1e1e" text-anchor="start">memory</text>
  </g>
  <g opacity="1.0">
    <text x="30" y="403.0" font-size="13" font-family="Cascadia, monospace" fill="#2f9e44" text-anchor="start">Green = NCCL proxy pair (GPU + NIC on shared pcieRoot switch)</text>
  </g>
  <g opacity="1.0">
    <text x="30" y="421.0" font-size="13" font-family="Cascadia, monospace" fill="#1971c2" text-anchor="start">Blue = other GPUs on same NUMA (different switches, connected via xGMI)</text>
  </g>
  <g opacity="1.0">
    <text x="30" y="439.0" font-size="13" font-family="Cascadia, monospace" fill="#495057" text-anchor="start">Yield: 8 of 8 GPUs usable (100%) — 2 independent training groups</text>
  </g>
  <path d="M308,195 L308,205" fill="none" stroke="#2f9e44" stroke-width="1" opacity="1.0" stroke-dasharray="4,3" />
  <path d="M308,205 L383,205" fill="none" stroke="#2f9e44" stroke-width="1" opacity="1.0" stroke-dasharray="4,3" />
  <path d="M383,205 L383,195" fill="none" stroke="#2f9e44" stroke-width="1" opacity="1.0" stroke-dasharray="4,3" />
  <path d="M383,195 L383,213" fill="none" stroke="#2f9e44" stroke-width="1" opacity="1.0" stroke-dasharray="4,3" />
  <path d="M383,213 L458,213" fill="none" stroke="#2f9e44" stroke-width="1" opacity="1.0" stroke-dasharray="4,3" />
  <path d="M458,213 L458,195" fill="none" stroke="#2f9e44" stroke-width="1" opacity="1.0" stroke-dasharray="4,3" />
  <path d="M308,195 L308,221" fill="none" stroke="#2f9e44" stroke-width="1" opacity="1.0" stroke-dasharray="4,3" />
  <path d="M308,221 L458,221" fill="none" stroke="#2f9e44" stroke-width="1" opacity="1.0" stroke-dasharray="4,3" />
  <path d="M458,221 L458,195" fill="none" stroke="#2f9e44" stroke-width="1" opacity="1.0" stroke-dasharray="4,3" />
  <path d="M100,195 L100,229" fill="none" stroke="#2f9e44" stroke-width="1" opacity="1.0" stroke-dasharray="4,3" />
  <path d="M100,229 L308,229" fill="none" stroke="#2f9e44" stroke-width="1" opacity="1.0" stroke-dasharray="4,3" />
  <path d="M308,229 L308,195" fill="none" stroke="#2f9e44" stroke-width="1" opacity="1.0" stroke-dasharray="4,3" />
  <path d="M100,195 L100,237" fill="none" stroke="#2f9e44" stroke-width="1" opacity="1.0" stroke-dasharray="4,3" />
  <path d="M100,237 L383,237" fill="none" stroke="#2f9e44" stroke-width="1" opacity="1.0" stroke-dasharray="4,3" />
  <path d="M383,237 L383,195" fill="none" stroke="#2f9e44" stroke-width="1" opacity="1.0" stroke-dasharray="4,3" />
  <path d="M100,195 L100,245" fill="none" stroke="#2f9e44" stroke-width="1" opacity="1.0" stroke-dasharray="4,3" />
  <path d="M100,245 L458,245" fill="none" stroke="#2f9e44" stroke-width="1" opacity="1.0" stroke-dasharray="4,3" />
  <path d="M458,245 L458,195" fill="none" stroke="#2f9e44" stroke-width="1" opacity="1.0" stroke-dasharray="4,3" />
  <path d="M808,195 L808,205" fill="none" stroke="#2f9e44" stroke-width="1" opacity="1.0" stroke-dasharray="4,3" />
  <path d="M808,205 L883,205" fill="none" stroke="#2f9e44" stroke-width="1" opacity="1.0" stroke-dasharray="4,3" />
  <path d="M883,205 L883,195" fill="none" stroke="#2f9e44" stroke-width="1" opacity="1.0" stroke-dasharray="4,3" />
  <path d="M883,195 L883,213" fill="none" stroke="#2f9e44" stroke-width="1" opacity="1.0" stroke-dasharray="4,3" />
  <path d="M883,213 L958,213" fill="none" stroke="#2f9e44" stroke-width="1" opacity="1.0" stroke-dasharray="4,3" />
  <path d="M958,213 L958,195" fill="none" stroke="#2f9e44" stroke-width="1" opacity="1.0" stroke-dasharray="4,3" />
  <path d="M808,195 L808,221" fill="none" stroke="#2f9e44" stroke-width="1" opacity="1.0" stroke-dasharray="4,3" />
  <path d="M808,221 L958,221" fill="none" stroke="#2f9e44" stroke-width="1" opacity="1.0" stroke-dasharray="4,3" />
  <path d="M958,221 L958,195" fill="none" stroke="#2f9e44" stroke-width="1" opacity="1.0" stroke-dasharray="4,3" />
  <path d="M600,195 L600,229" fill="none" stroke="#2f9e44" stroke-width="1" opacity="1.0" stroke-dasharray="4,3" />
  <path d="M600,229 L808,229" fill="none" stroke="#2f9e44" stroke-width="1" opacity="1.0" stroke-dasharray="4,3" />
  <path d="M808,229 L808,195" fill="none" stroke="#2f9e44" stroke-width="1" opacity="1.0" stroke-dasharray="4,3" />
  <path d="M600,195 L600,237" fill="none" stroke="#2f9e44" stroke-width="1" opacity="1.0" stroke-dasharray="4,3" />
  <path d="M600,237 L883,237" fill="none" stroke="#2f9e44" stroke-width="1" opacity="1.0" stroke-dasharray="4,3" />
  <path d="M883,237 L883,195" fill="none" stroke="#2f9e44" stroke-width="1" opacity="1.0" stroke-dasharray="4,3" />
  <path d="M600,195 L600,245" fill="none" stroke="#2f9e44" stroke-width="1" opacity="1.0" stroke-dasharray="4,3" />
  <path d="M600,245 L958,245" fill="none" stroke="#2f9e44" stroke-width="1" opacity="1.0" stroke-dasharray="4,3" />
  <path d="M958,245 L958,195" fill="none" stroke="#2f9e44" stroke-width="1" opacity="1.0" stroke-dasharray="4,3" />
</svg>